<?xml version="1.0" encoding="utf-8" standalone="no"?>
<!DOCTYPE svg PUBLIC "-//W3C//DTD SVG 1.1//EN"
  "http://www.w3.org/Graphics/SVG/1.1/DTD/svg11.dtd">
<svg xmlns:xlink="http://www.w3.org/1999/xlink" width="1072.844375pt" height="350.728125pt" viewBox="0 0 1072.844375 350.728125" xmlns="http://www.w3.org/2000/svg" version="1.1">
 <metadata>
  <rdf:RDF xmlns:dc="http://purl.org/dc/elements/1.1/" xmlns:cc="http://creativecommons.org/ns#" xmlns:rdf="http://www.w3.org/1999/02/22-rdf-syntax-ns#">
   <cc:Work>
    <dc:type rdf:resource="http://purl.org/dc/dcmitype/StillImage"/>
    <dc:date>2026-02-22T03:22:43.406021</dc:date>
    <dc:format>image/svg+xml</dc:format>
    <dc:creator>
     <cc:Agent>
      <dc:title>Matplotlib v3.9.4, https://matplotlib.org/</dc:title>
     </cc:Agent>
    </dc:creator>
   </cc:Work>
  </rdf:RDF>
 </metadata>
 <defs>
  <style type="text/css">*{stroke-linejoin: round; stroke-linecap: butt}</style>
 </defs>
 <g id="figure_1">
  <g id="patch_1">
   <path d="M 0 350.728125 
L 1072.844375 350.728125 
L 1072.844375 0 
L 0 0 
z
" style="fill: #ffffff"/>
  </g>
  <g id="axes_1">
   <g id="patch_2">
    <path d="M 314.41 189.923125 
C 314.41 169.751901 310.436709 149.776817 302.717516 131.141036 
C 294.998322 112.505256 283.683346 95.571197 269.420137 81.307988 
C 255.156928 67.044779 238.222869 55.729803 219.587089 48.010609 
C 200.951308 40.291416 180.976224 36.318125 160.805 36.318125 
C 140.633776 36.318125 120.658692 40.291416 102.022911 48.010609 
C 83.387131 55.729803 66.453072 67.044779 52.189863 81.307988 
C 37.926654 95.571197 26.611678 112.505256 18.892484 131.141036 
C 11.173291 149.776817 7.2 169.751901 7.2 189.923125 
C 7.2 210.094349 11.173291 230.069433 18.892484 248.705214 
C 26.611678 267.340994 37.926654 284.275053 52.189863 298.538262 
C 66.453072 312.801471 83.387131 324.116447 102.022911 331.835641 
C 120.658692 339.554834 140.633776 343.528125 160.805 343.528125 
C 180.976224 343.528125 200.951308 339.554834 219.587089 331.835641 
C 238.222869 324.116447 255.156928 312.801471 269.420137 298.538262 
C 283.683346 284.275053 294.998322 267.340994 302.717516 248.705214 
C 310.436709 230.069433 314.41 210.094349 314.41 189.923125 
M 160.805 189.923125 
C 160.805 189.923125 160.805 189.923125 160.805 189.923125 
C 160.805 189.923125 160.805 189.923125 160.805 189.923125 
C 160.805 189.923125 160.805 189.923125 160.805 189.923125 
C 160.805 189.923125 160.805 189.923125 160.805 189.923125 
C 160.805 189.923125 160.805 189.923125 160.805 189.923125 
C 160.805 189.923125 160.805 189.923125 160.805 189.923125 
C 160.805 189.923125 160.805 189.923125 160.805 189.923125 
C 160.805 189.923125 160.805 189.923125 160.805 189.923125 
C 160.805 189.923125 160.805 189.923125 160.805 189.923125 
C 160.805 189.923125 160.805 189.923125 160.805 189.923125 
C 160.805 189.923125 160.805 189.923125 160.805 189.923125 
C 160.805 189.923125 160.805 189.923125 160.805 189.923125 
C 160.805 189.923125 160.805 189.923125 160.805 189.923125 
C 160.805 189.923125 160.805 189.923125 160.805 189.923125 
C 160.805 189.923125 160.805 189.923125 160.805 189.923125 
C 160.805 189.923125 160.805 189.923125 160.805 189.923125 
z
" style="fill: #ffffff"/>
   </g>
   <g id="matplotlib.axis_1">
    <g id="xtick_1">
     <g id="line2d_1">
      <path d="M 160.805 189.923125 
L 314.41 189.923125 
" clip-path="url(#p1835657cb5)" style="fill: none; stroke: #cccccc; stroke-width: 0.8; stroke-linecap: round"/>
     </g>
     <g id="text_1">
      <!-- Méthodes -->
      <g style="fill: #262626" transform="translate(303.975625 192.6825) scale(0.1 -0.1)">
       <defs>
        <path id="DejaVuSans-4d" d="M 628 4666 
L 1569 4666 
L 2759 1491 
L 3956 4666 
L 4897 4666 
L 4897 0 
L 4281 0 
L 4281 4097 
L 3078 897 
L 2444 897 
L 1241 4097 
L 1241 0 
L 628 0 
L 628 4666 
z
" transform="scale(0.015625)"/>
        <path id="DejaVuSans-e9" d="M 3597 1894 
L 3597 1613 
L 953 1613 
Q 991 1019 1311 708 
Q 1631 397 2203 397 
Q 2534 397 2845 478 
Q 3156 559 3463 722 
L 3463 178 
Q 3153 47 2828 -22 
Q 2503 -91 2169 -91 
Q 1331 -91 842 396 
Q 353 884 353 1716 
Q 353 2575 817 3079 
Q 1281 3584 2069 3584 
Q 2775 3584 3186 3129 
Q 3597 2675 3597 1894 
z
M 3022 2063 
Q 3016 2534 2758 2815 
Q 2500 3097 2075 3097 
Q 1594 3097 1305 2825 
Q 1016 2553 972 2059 
L 3022 2063 
z
M 2466 5119 
L 3088 5119 
L 2070 3944 
L 1591 3944 
L 2466 5119 
z
" transform="scale(0.015625)"/>
        <path id="DejaVuSans-74" d="M 1172 4494 
L 1172 3500 
L 2356 3500 
L 2356 3053 
L 1172 3053 
L 1172 1153 
Q 1172 725 1289 603 
Q 1406 481 1766 481 
L 2356 481 
L 2356 0 
L 1766 0 
Q 1100 0 847 248 
Q 594 497 594 1153 
L 594 3053 
L 172 3053 
L 172 3500 
L 594 3500 
L 594 4494 
L 1172 4494 
z
" transform="scale(0.015625)"/>
        <path id="DejaVuSans-68" d="M 3513 2113 
L 3513 0 
L 2938 0 
L 2938 2094 
Q 2938 2591 2744 2837 
Q 2550 3084 2163 3084 
Q 1697 3084 1428 2787 
Q 1159 2491 1159 1978 
L 1159 0 
L 581 0 
L 581 4863 
L 1159 4863 
L 1159 2956 
Q 1366 3272 1645 3428 
Q 1925 3584 2291 3584 
Q 2894 3584 3203 3211 
Q 3513 2838 3513 2113 
z
" transform="scale(0.015625)"/>
        <path id="DejaVuSans-6f" d="M 1959 3097 
Q 1497 3097 1228 2736 
Q 959 2375 959 1747 
Q 959 1119 1226 758 
Q 1494 397 1959 397 
Q 2419 397 2687 759 
Q 2956 1122 2956 1747 
Q 2956 2369 2687 2733 
Q 2419 3097 1959 3097 
z
M 1959 3584 
Q 2709 3584 3137 3096 
Q 3566 2609 3566 1747 
Q 3566 888 3137 398 
Q 2709 -91 1959 -91 
Q 1206 -91 779 398 
Q 353 888 353 1747 
Q 353 2609 779 3096 
Q 1206 3584 1959 3584 
z
" transform="scale(0.015625)"/>
        <path id="DejaVuSans-64" d="M 2906 2969 
L 2906 4863 
L 3481 4863 
L 3481 0 
L 2906 0 
L 2906 525 
Q 2725 213 2448 61 
Q 2172 -91 1784 -91 
Q 1150 -91 751 415 
Q 353 922 353 1747 
Q 353 2572 751 3078 
Q 1150 3584 1784 3584 
Q 2172 3584 2448 3432 
Q 2725 3281 2906 2969 
z
M 947 1747 
Q 947 1113 1208 752 
Q 1469 391 1925 391 
Q 2381 391 2643 752 
Q 2906 1113 2906 1747 
Q 2906 2381 2643 2742 
Q 2381 3103 1925 3103 
Q 1469 3103 1208 2742 
Q 947 2381 947 1747 
z
" transform="scale(0.015625)"/>
        <path id="DejaVuSans-65" d="M 3597 1894 
L 3597 1613 
L 953 1613 
Q 991 1019 1311 708 
Q 1631 397 2203 397 
Q 2534 397 2845 478 
Q 3156 559 3463 722 
L 3463 178 
Q 3153 47 2828 -22 
Q 2503 -91 2169 -91 
Q 1331 -91 842 396 
Q 353 884 353 1716 
Q 353 2575 817 3079 
Q 1281 3584 2069 3584 
Q 2775 3584 3186 3129 
Q 3597 2675 3597 1894 
z
M 3022 2063 
Q 3016 2534 2758 2815 
Q 2500 3097 2075 3097 
Q 1594 3097 1305 2825 
Q 1016 2553 972 2059 
L 3022 2063 
z
" transform="scale(0.015625)"/>
        <path id="DejaVuSans-73" d="M 2834 3397 
L 2834 2853 
Q 2591 2978 2328 3040 
Q 2066 3103 1784 3103 
Q 1356 3103 1142 2972 
Q 928 2841 928 2578 
Q 928 2378 1081 2264 
Q 1234 2150 1697 2047 
L 1894 2003 
Q 2506 1872 2764 1633 
Q 3022 1394 3022 966 
Q 3022 478 2636 193 
Q 2250 -91 1575 -91 
Q 1294 -91 989 -36 
Q 684 19 347 128 
L 347 722 
Q 666 556 975 473 
Q 1284 391 1588 391 
Q 1994 391 2212 530 
Q 2431 669 2431 922 
Q 2431 1156 2273 1281 
Q 2116 1406 1581 1522 
L 1381 1569 
Q 847 1681 609 1914 
Q 372 2147 372 2553 
Q 372 3047 722 3315 
Q 1072 3584 1716 3584 
Q 2034 3584 2315 3537 
Q 2597 3491 2834 3397 
z
" transform="scale(0.015625)"/>
       </defs>
       <use xlink:href="#DejaVuSans-4d"/>
       <use xlink:href="#DejaVuSans-e9" x="86.279297"/>
       <use xlink:href="#DejaVuSans-74" x="147.802734"/>
       <use xlink:href="#DejaVuSans-68" x="187.011719"/>
       <use xlink:href="#DejaVuSans-6f" x="250.390625"/>
       <use xlink:href="#DejaVuSans-64" x="311.572266"/>
       <use xlink:href="#DejaVuSans-65" x="375.048828"/>
       <use xlink:href="#DejaVuSans-73" x="436.572266"/>
      </g>
     </g>
    </g>
    <g id="xtick_2">
     <g id="line2d_2">
      <path d="M 160.805 189.923125 
L 84.0025 56.897293 
" clip-path="url(#p1835657cb5)" style="fill: none; stroke: #cccccc; stroke-width: 0.8; stroke-linecap: round"/>
     </g>
     <g id="text_2">
      <!-- Attributs -->
      <g style="fill: #262626" transform="translate(55.397031 47.532312) scale(0.1 -0.1)">
       <defs>
        <path id="DejaVuSans-41" d="M 2188 4044 
L 1331 1722 
L 3047 1722 
L 2188 4044 
z
M 1831 4666 
L 2547 4666 
L 4325 0 
L 3669 0 
L 3244 1197 
L 1141 1197 
L 716 0 
L 50 0 
L 1831 4666 
z
" transform="scale(0.015625)"/>
        <path id="DejaVuSans-72" d="M 2631 2963 
Q 2534 3019 2420 3045 
Q 2306 3072 2169 3072 
Q 1681 3072 1420 2755 
Q 1159 2438 1159 1844 
L 1159 0 
L 581 0 
L 581 3500 
L 1159 3500 
L 1159 2956 
Q 1341 3275 1631 3429 
Q 1922 3584 2338 3584 
Q 2397 3584 2469 3576 
Q 2541 3569 2628 3553 
L 2631 2963 
z
" transform="scale(0.015625)"/>
        <path id="DejaVuSans-69" d="M 603 3500 
L 1178 3500 
L 1178 0 
L 603 0 
L 603 3500 
z
M 603 4863 
L 1178 4863 
L 1178 4134 
L 603 4134 
L 603 4863 
z
" transform="scale(0.015625)"/>
        <path id="DejaVuSans-62" d="M 3116 1747 
Q 3116 2381 2855 2742 
Q 2594 3103 2138 3103 
Q 1681 3103 1420 2742 
Q 1159 2381 1159 1747 
Q 1159 1113 1420 752 
Q 1681 391 2138 391 
Q 2594 391 2855 752 
Q 3116 1113 3116 1747 
z
M 1159 2969 
Q 1341 3281 1617 3432 
Q 1894 3584 2278 3584 
Q 2916 3584 3314 3078 
Q 3713 2572 3713 1747 
Q 3713 922 3314 415 
Q 2916 -91 2278 -91 
Q 1894 -91 1617 61 
Q 1341 213 1159 525 
L 1159 0 
L 581 0 
L 581 4863 
L 1159 4863 
L 1159 2969 
z
" transform="scale(0.015625)"/>
        <path id="DejaVuSans-75" d="M 544 1381 
L 544 3500 
L 1119 3500 
L 1119 1403 
Q 1119 906 1312 657 
Q 1506 409 1894 409 
Q 2359 409 2629 706 
Q 2900 1003 2900 1516 
L 2900 3500 
L 3475 3500 
L 3475 0 
L 2900 0 
L 2900 538 
Q 2691 219 2414 64 
Q 2138 -91 1772 -91 
Q 1169 -91 856 284 
Q 544 659 544 1381 
z
M 1991 3584 
L 1991 3584 
z
" transform="scale(0.015625)"/>
       </defs>
       <use xlink:href="#DejaVuSans-41"/>
       <use xlink:href="#DejaVuSans-74" x="66.658203"/>
       <use xlink:href="#DejaVuSans-74" x="105.867188"/>
       <use xlink:href="#DejaVuSans-72" x="145.076172"/>
       <use xlink:href="#DejaVuSans-69" x="186.189453"/>
       <use xlink:href="#DejaVuSans-62" x="213.972656"/>
       <use xlink:href="#DejaVuSans-75" x="277.449219"/>
       <use xlink:href="#DejaVuSans-74" x="340.828125"/>
       <use xlink:href="#DejaVuSans-73" x="380.037109"/>
      </g>
     </g>
    </g>
    <g id="xtick_3">
     <g id="line2d_3">
      <path d="M 160.805 189.923125 
L 84.0025 322.948957 
" clip-path="url(#p1835657cb5)" style="fill: none; stroke: #cccccc; stroke-width: 0.8; stroke-linecap: round"/>
     </g>
     <g id="text_3">
      <!-- Lignes de code -->
      <g style="fill: #262626" transform="translate(39.315 337.832688) scale(0.1 -0.1)">
       <defs>
        <path id="DejaVuSans-4c" d="M 628 4666 
L 1259 4666 
L 1259 531 
L 3531 531 
L 3531 0 
L 628 0 
L 628 4666 
z
" transform="scale(0.015625)"/>
        <path id="DejaVuSans-67" d="M 2906 1791 
Q 2906 2416 2648 2759 
Q 2391 3103 1925 3103 
Q 1463 3103 1205 2759 
Q 947 2416 947 1791 
Q 947 1169 1205 825 
Q 1463 481 1925 481 
Q 2391 481 2648 825 
Q 2906 1169 2906 1791 
z
M 3481 434 
Q 3481 -459 3084 -895 
Q 2688 -1331 1869 -1331 
Q 1566 -1331 1297 -1286 
Q 1028 -1241 775 -1147 
L 775 -588 
Q 1028 -725 1275 -790 
Q 1522 -856 1778 -856 
Q 2344 -856 2625 -561 
Q 2906 -266 2906 331 
L 2906 616 
Q 2728 306 2450 153 
Q 2172 0 1784 0 
Q 1141 0 747 490 
Q 353 981 353 1791 
Q 353 2603 747 3093 
Q 1141 3584 1784 3584 
Q 2172 3584 2450 3431 
Q 2728 3278 2906 2969 
L 2906 3500 
L 3481 3500 
L 3481 434 
z
" transform="scale(0.015625)"/>
        <path id="DejaVuSans-6e" d="M 3513 2113 
L 3513 0 
L 2938 0 
L 2938 2094 
Q 2938 2591 2744 2837 
Q 2550 3084 2163 3084 
Q 1697 3084 1428 2787 
Q 1159 2491 1159 1978 
L 1159 0 
L 581 0 
L 581 3500 
L 1159 3500 
L 1159 2956 
Q 1366 3272 1645 3428 
Q 1925 3584 2291 3584 
Q 2894 3584 3203 3211 
Q 3513 2838 3513 2113 
z
" transform="scale(0.015625)"/>
        <path id="DejaVuSans-20" transform="scale(0.015625)"/>
        <path id="DejaVuSans-63" d="M 3122 3366 
L 3122 2828 
Q 2878 2963 2633 3030 
Q 2388 3097 2138 3097 
Q 1578 3097 1268 2742 
Q 959 2388 959 1747 
Q 959 1106 1268 751 
Q 1578 397 2138 397 
Q 2388 397 2633 464 
Q 2878 531 3122 666 
L 3122 134 
Q 2881 22 2623 -34 
Q 2366 -91 2075 -91 
Q 1284 -91 818 406 
Q 353 903 353 1747 
Q 353 2603 823 3093 
Q 1294 3584 2113 3584 
Q 2378 3584 2631 3529 
Q 2884 3475 3122 3366 
z
" transform="scale(0.015625)"/>
       </defs>
       <use xlink:href="#DejaVuSans-4c"/>
       <use xlink:href="#DejaVuSans-69" x="55.712891"/>
       <use xlink:href="#DejaVuSans-67" x="83.496094"/>
       <use xlink:href="#DejaVuSans-6e" x="146.972656"/>
       <use xlink:href="#DejaVuSans-65" x="210.351562"/>
       <use xlink:href="#DejaVuSans-73" x="271.875"/>
       <use xlink:href="#DejaVuSans-20" x="323.974609"/>
       <use xlink:href="#DejaVuSans-64" x="355.761719"/>
       <use xlink:href="#DejaVuSans-65" x="419.238281"/>
       <use xlink:href="#DejaVuSans-20" x="480.761719"/>
       <use xlink:href="#DejaVuSans-63" x="512.548828"/>
       <use xlink:href="#DejaVuSans-6f" x="567.529297"/>
       <use xlink:href="#DejaVuSans-64" x="628.710938"/>
       <use xlink:href="#DejaVuSans-65" x="692.1875"/>
      </g>
     </g>
    </g>
   </g>
   <g id="matplotlib.axis_2">
    <g id="ytick_1">
     <g id="line2d_4">
      <path d="M 191.836313 189.923125 
C 191.836313 185.84813 191.033628 181.81276 189.474195 178.047956 
C 187.914762 174.283151 185.628908 170.862129 182.747452 167.980673 
C 179.865996 165.099217 176.444974 162.813363 172.680169 161.25393 
C 168.915365 159.694497 164.879995 158.891812 160.805 158.891812 
C 156.730005 158.891812 152.694635 159.694497 148.929831 161.25393 
C 145.165026 162.813363 141.744004 165.099217 138.862548 167.980673 
C 135.981092 170.862129 133.695238 174.283151 132.135805 178.047956 
C 130.576372 181.81276 129.773687 185.84813 129.773687 189.923125 
C 129.773687 193.99812 130.576372 198.03349 132.135805 201.798294 
C 133.695238 205.563099 135.981092 208.984121 138.862548 211.865577 
C 141.744004 214.747033 145.165026 217.032887 148.929831 218.59232 
C 152.694635 220.151753 156.730005 220.954438 160.805 220.954438 
C 164.879995 220.954438 168.915365 220.151753 172.680169 218.59232 
C 176.444974 217.032887 179.865996 214.747033 182.747452 211.865577 
C 185.628908 208.984121 187.914762 205.563099 189.474195 201.798294 
C 191.033628 198.03349 191.836313 193.99812 191.836313 189.923125 
" clip-path="url(#p1835657cb5)" style="fill: none; stroke: #cccccc; stroke-width: 0.8; stroke-linecap: round"/>
     </g>
     <g id="text_4">
      <!-- 10 -->
      <g style="fill: #262626" transform="translate(189.474195 175.968268) scale(0.1 -0.1)">
       <defs>
        <path id="DejaVuSans-31" d="M 794 531 
L 1825 531 
L 1825 4091 
L 703 3866 
L 703 4441 
L 1819 4666 
L 2450 4666 
L 2450 531 
L 3481 531 
L 3481 0 
L 794 0 
L 794 531 
z
" transform="scale(0.015625)"/>
        <path id="DejaVuSans-30" d="M 2034 4250 
Q 1547 4250 1301 3770 
Q 1056 3291 1056 2328 
Q 1056 1369 1301 889 
Q 1547 409 2034 409 
Q 2525 409 2770 889 
Q 3016 1369 3016 2328 
Q 3016 3291 2770 3770 
Q 2525 4250 2034 4250 
z
M 2034 4750 
Q 2819 4750 3233 4129 
Q 3647 3509 3647 2328 
Q 3647 1150 3233 529 
Q 2819 -91 2034 -91 
Q 1250 -91 836 529 
Q 422 1150 422 2328 
Q 422 3509 836 4129 
Q 1250 4750 2034 4750 
z
" transform="scale(0.015625)"/>
       </defs>
       <use xlink:href="#DejaVuSans-31"/>
       <use xlink:href="#DejaVuSans-30" x="63.623047"/>
      </g>
     </g>
    </g>
    <g id="ytick_2">
     <g id="line2d_5">
      <path d="M 222.867626 189.923125 
C 222.867626 181.773136 221.262256 173.702395 218.14339 166.172786 
C 215.024524 158.643178 210.452817 151.801134 204.689904 146.038221 
C 198.926991 140.275308 192.084947 135.703601 184.555339 132.584735 
C 177.02573 129.465869 168.954989 127.860499 160.805 127.860499 
C 152.655011 127.860499 144.58427 129.465869 137.054661 132.584735 
C 129.525053 135.703601 122.683009 140.275308 116.920096 146.038221 
C 111.157183 151.801134 106.585476 158.643178 103.46661 166.172786 
C 100.347744 173.702395 98.742374 181.773136 98.742374 189.923125 
C 98.742374 198.073114 100.347744 206.143855 103.46661 213.673464 
C 106.585476 221.203072 111.157183 228.045116 116.920096 233.808029 
C 122.683009 239.570942 129.525053 244.142649 137.054661 247.261515 
C 144.58427 250.380381 152.655011 251.985751 160.805 251.985751 
C 168.954989 251.985751 177.02573 250.380381 184.555339 247.261515 
C 192.084947 244.142649 198.926991 239.570942 204.689904 233.808029 
C 210.452817 228.045116 215.024524 221.203072 218.14339 213.673464 
C 221.262256 206.143855 222.867626 198.073114 222.867626 189.923125 
" clip-path="url(#p1835657cb5)" style="fill: none; stroke: #cccccc; stroke-width: 0.8; stroke-linecap: round"/>
     </g>
     <g id="text_5">
      <!-- 20 -->
      <g style="fill: #262626" transform="translate(218.14339 164.093099) scale(0.1 -0.1)">
       <defs>
        <path id="DejaVuSans-32" d="M 1228 531 
L 3431 531 
L 3431 0 
L 469 0 
L 469 531 
Q 828 903 1448 1529 
Q 2069 2156 2228 2338 
Q 2531 2678 2651 2914 
Q 2772 3150 2772 3378 
Q 2772 3750 2511 3984 
Q 2250 4219 1831 4219 
Q 1534 4219 1204 4116 
Q 875 4013 500 3803 
L 500 4441 
Q 881 4594 1212 4672 
Q 1544 4750 1819 4750 
Q 2544 4750 2975 4387 
Q 3406 4025 3406 3419 
Q 3406 3131 3298 2873 
Q 3191 2616 2906 2266 
Q 2828 2175 2409 1742 
Q 1991 1309 1228 531 
z
" transform="scale(0.015625)"/>
       </defs>
       <use xlink:href="#DejaVuSans-32"/>
       <use xlink:href="#DejaVuSans-30" x="63.623047"/>
      </g>
     </g>
    </g>
    <g id="ytick_3">
     <g id="line2d_6">
      <path d="M 253.898939 189.923125 
C 253.898939 177.698141 251.490884 165.592029 246.812585 154.297617 
C 242.134286 143.003204 235.276725 132.740138 226.632356 124.095769 
C 217.987987 115.4514 207.724921 108.593839 196.430508 103.91554 
C 185.136096 99.237241 173.029984 96.829186 160.805 96.829186 
C 148.580016 96.829186 136.473904 99.237241 125.179492 103.91554 
C 113.885079 108.593839 103.622013 115.4514 94.977644 124.095769 
C 86.333275 132.740138 79.475714 143.003204 74.797415 154.297617 
C 70.119116 165.592029 67.711061 177.698141 67.711061 189.923125 
C 67.711061 202.148109 70.119116 214.254221 74.797415 225.548633 
C 79.475714 236.843046 86.333275 247.106112 94.977644 255.750481 
C 103.622013 264.39485 113.885079 271.252411 125.179492 275.93071 
C 136.473904 280.609009 148.580016 283.017064 160.805 283.017064 
C 173.029984 283.017064 185.136096 280.609009 196.430508 275.93071 
C 207.724921 271.252411 217.987987 264.39485 226.632356 255.750481 
C 235.276725 247.106112 242.134286 236.843046 246.812585 225.548633 
C 251.490884 214.254221 253.898939 202.148109 253.898939 189.923125 
" clip-path="url(#p1835657cb5)" style="fill: none; stroke: #cccccc; stroke-width: 0.8; stroke-linecap: round"/>
     </g>
     <g id="text_6">
      <!-- 30 -->
      <g style="fill: #262626" transform="translate(246.812585 152.217929) scale(0.1 -0.1)">
       <defs>
        <path id="DejaVuSans-33" d="M 2597 2516 
Q 3050 2419 3304 2112 
Q 3559 1806 3559 1356 
Q 3559 666 3084 287 
Q 2609 -91 1734 -91 
Q 1441 -91 1130 -33 
Q 819 25 488 141 
L 488 750 
Q 750 597 1062 519 
Q 1375 441 1716 441 
Q 2309 441 2620 675 
Q 2931 909 2931 1356 
Q 2931 1769 2642 2001 
Q 2353 2234 1838 2234 
L 1294 2234 
L 1294 2753 
L 1863 2753 
Q 2328 2753 2575 2939 
Q 2822 3125 2822 3475 
Q 2822 3834 2567 4026 
Q 2313 4219 1838 4219 
Q 1578 4219 1281 4162 
Q 984 4106 628 3988 
L 628 4550 
Q 988 4650 1302 4700 
Q 1616 4750 1894 4750 
Q 2613 4750 3031 4423 
Q 3450 4097 3450 3541 
Q 3450 3153 3228 2886 
Q 3006 2619 2597 2516 
z
" transform="scale(0.015625)"/>
       </defs>
       <use xlink:href="#DejaVuSans-33"/>
       <use xlink:href="#DejaVuSans-30" x="63.623047"/>
      </g>
     </g>
    </g>
    <g id="ytick_4">
     <g id="line2d_7">
      <path d="M 284.930253 189.923125 
C 284.930253 173.623146 281.719512 157.481664 275.48178 142.422447 
C 269.244048 127.363231 260.100633 113.679143 248.574808 102.153317 
C 237.048982 90.627492 223.364894 81.484077 208.305678 75.246345 
C 193.246461 69.008613 177.104979 65.797872 160.805 65.797872 
C 144.505021 65.797872 128.363539 69.008613 113.304322 75.246345 
C 98.245106 81.484077 84.561018 90.627492 73.035192 102.153317 
C 61.509367 113.679143 52.365952 127.363231 46.12822 142.422447 
C 39.890488 157.481664 36.679747 173.623146 36.679747 189.923125 
C 36.679747 206.223104 39.890488 222.364586 46.12822 237.423803 
C 52.365952 252.483019 61.509367 266.167107 73.035192 277.692933 
C 84.561018 289.218758 98.245106 298.362173 113.304322 304.599905 
C 128.363539 310.837637 144.505021 314.048378 160.805 314.048378 
C 177.104979 314.048378 193.246461 310.837637 208.305678 304.599905 
C 223.364894 298.362173 237.048982 289.218758 248.574808 277.692933 
C 260.100633 266.167107 269.244048 252.483019 275.48178 237.423803 
C 281.719512 222.364586 284.930253 206.223104 284.930253 189.923125 
" clip-path="url(#p1835657cb5)" style="fill: none; stroke: #cccccc; stroke-width: 0.8; stroke-linecap: round"/>
     </g>
     <g id="text_7">
      <!-- 40 -->
      <g style="fill: #262626" transform="translate(275.48178 140.34276) scale(0.1 -0.1)">
       <defs>
        <path id="DejaVuSans-34" d="M 2419 4116 
L 825 1625 
L 2419 1625 
L 2419 4116 
z
M 2253 4666 
L 3047 4666 
L 3047 1625 
L 3713 1625 
L 3713 1100 
L 3047 1100 
L 3047 0 
L 2419 0 
L 2419 1100 
L 313 1100 
L 313 1709 
L 2253 4666 
z
" transform="scale(0.015625)"/>
       </defs>
       <use xlink:href="#DejaVuSans-34"/>
       <use xlink:href="#DejaVuSans-30" x="63.623047"/>
      </g>
     </g>
    </g>
   </g>
   <g id="patch_3">
    <path d="M 182.526919 189.923125 
L 157.701869 184.548344 
L 90.984545 310.8557 
z
" clip-path="url(#p1835657cb5)" style="fill: #3b82f6; opacity: 0.25; stroke: #3b82f6; stroke-linejoin: miter"/>
   </g>
   <g id="line2d_8">
    <path d="M 182.526919 189.923125 
L 157.701869 184.548344 
L 90.984545 310.8557 
L 182.526919 189.923125 
" clip-path="url(#p1835657cb5)" style="fill: none; stroke: #3b82f6; stroke-width: 2; stroke-linecap: round"/>
    <defs>
     <path id="mae02602e35" d="M 0 3 
C 0.795609 3 1.55874 2.683901 2.12132 2.12132 
C 2.683901 1.55874 3 0.795609 3 0 
C 3 -0.795609 2.683901 -1.55874 2.12132 -2.12132 
C 1.55874 -2.683901 0.795609 -3 0 -3 
C -0.795609 -3 -1.55874 -2.683901 -2.12132 -2.12132 
C -2.683901 -1.55874 -3 -0.795609 -3 0 
C -3 0.795609 -2.683901 1.55874 -2.12132 2.12132 
C -1.55874 2.683901 -0.795609 3 0 3 
z
" style="stroke: #3b82f6"/>
    </defs>
    <g clip-path="url(#p1835657cb5)">
     <use xlink:href="#mae02602e35" x="182.526919" y="189.923125" style="fill: #3b82f6; stroke: #3b82f6"/>
     <use xlink:href="#mae02602e35" x="157.701869" y="184.548344" style="fill: #3b82f6; stroke: #3b82f6"/>
     <use xlink:href="#mae02602e35" x="90.984545" y="310.8557" style="fill: #3b82f6; stroke: #3b82f6"/>
     <use xlink:href="#mae02602e35" x="182.526919" y="189.923125" style="fill: #3b82f6; stroke: #3b82f6"/>
    </g>
   </g>
   <g id="patch_4">
    <path d="M 314.41 189.923125 
C 314.41 169.751901 310.436709 149.776817 302.717516 131.141036 
C 294.998322 112.505256 283.683346 95.571197 269.420137 81.307988 
C 255.156928 67.044779 238.222869 55.729803 219.587089 48.010609 
C 200.951308 40.291416 180.976224 36.318125 160.805 36.318125 
C 140.633776 36.318125 120.658692 40.291416 102.022911 48.010609 
C 83.387131 55.729803 66.453072 67.044779 52.189863 81.307988 
C 37.926654 95.571197 26.611678 112.505256 18.892484 131.141036 
C 11.173291 149.776817 7.2 169.751901 7.2 189.923125 
C 7.2 210.094349 11.173291 230.069433 18.892484 248.705214 
C 26.611678 267.340994 37.926654 284.275053 52.189863 298.538262 
C 66.453072 312.801471 83.387131 324.116447 102.022911 331.835641 
C 120.658692 339.554834 140.633776 343.528125 160.805 343.528125 
C 180.976224 343.528125 200.951308 339.554834 219.587089 331.835641 
C 238.222869 324.116447 255.156928 312.801471 269.420137 298.538262 
C 283.683346 284.275053 294.998322 267.340994 302.717516 248.705214 
C 310.436709 230.069433 314.41 210.094349 314.41 189.923125 
" style="fill: none; stroke: #cccccc; stroke-width: 0.8; stroke-linejoin: miter; stroke-linecap: square"/>
   </g>
   <g id="text_8">
    <!-- NotesManager -->
    <g style="fill: #262626" transform="translate(111.489687 16.318125) scale(0.12 -0.12)">
     <defs>
      <path id="DejaVuSans-Bold-4e" d="M 588 4666 
L 1931 4666 
L 3628 1466 
L 3628 4666 
L 4769 4666 
L 4769 0 
L 3425 0 
L 1728 3200 
L 1728 0 
L 588 0 
L 588 4666 
z
" transform="scale(0.015625)"/>
      <path id="DejaVuSans-Bold-6f" d="M 2203 2784 
Q 1831 2784 1636 2517 
Q 1441 2250 1441 1747 
Q 1441 1244 1636 976 
Q 1831 709 2203 709 
Q 2569 709 2762 976 
Q 2956 1244 2956 1747 
Q 2956 2250 2762 2517 
Q 2569 2784 2203 2784 
z
M 2203 3584 
Q 3106 3584 3614 3096 
Q 4122 2609 4122 1747 
Q 4122 884 3614 396 
Q 3106 -91 2203 -91 
Q 1297 -91 786 396 
Q 275 884 275 1747 
Q 275 2609 786 3096 
Q 1297 3584 2203 3584 
z
" transform="scale(0.015625)"/>
      <path id="DejaVuSans-Bold-74" d="M 1759 4494 
L 1759 3500 
L 2913 3500 
L 2913 2700 
L 1759 2700 
L 1759 1216 
Q 1759 972 1856 886 
Q 1953 800 2241 800 
L 2816 800 
L 2816 0 
L 1856 0 
Q 1194 0 917 276 
Q 641 553 641 1216 
L 641 2700 
L 84 2700 
L 84 3500 
L 641 3500 
L 641 4494 
L 1759 4494 
z
" transform="scale(0.015625)"/>
      <path id="DejaVuSans-Bold-65" d="M 4031 1759 
L 4031 1441 
L 1416 1441 
Q 1456 1047 1700 850 
Q 1944 653 2381 653 
Q 2734 653 3104 758 
Q 3475 863 3866 1075 
L 3866 213 
Q 3469 63 3072 -14 
Q 2675 -91 2278 -91 
Q 1328 -91 801 392 
Q 275 875 275 1747 
Q 275 2603 792 3093 
Q 1309 3584 2216 3584 
Q 3041 3584 3536 3087 
Q 4031 2591 4031 1759 
z
M 2881 2131 
Q 2881 2450 2695 2645 
Q 2509 2841 2209 2841 
Q 1884 2841 1681 2658 
Q 1478 2475 1428 2131 
L 2881 2131 
z
" transform="scale(0.015625)"/>
      <path id="DejaVuSans-Bold-73" d="M 3272 3391 
L 3272 2541 
Q 2913 2691 2578 2766 
Q 2244 2841 1947 2841 
Q 1628 2841 1473 2761 
Q 1319 2681 1319 2516 
Q 1319 2381 1436 2309 
Q 1553 2238 1856 2203 
L 2053 2175 
Q 2913 2066 3209 1816 
Q 3506 1566 3506 1031 
Q 3506 472 3093 190 
Q 2681 -91 1863 -91 
Q 1516 -91 1145 -36 
Q 775 19 384 128 
L 384 978 
Q 719 816 1070 734 
Q 1422 653 1784 653 
Q 2113 653 2278 743 
Q 2444 834 2444 1013 
Q 2444 1163 2330 1236 
Q 2216 1309 1875 1350 
L 1678 1375 
Q 931 1469 631 1722 
Q 331 1975 331 2491 
Q 331 3047 712 3315 
Q 1094 3584 1881 3584 
Q 2191 3584 2531 3537 
Q 2872 3491 3272 3391 
z
" transform="scale(0.015625)"/>
      <path id="DejaVuSans-Bold-4d" d="M 588 4666 
L 2119 4666 
L 3181 2169 
L 4250 4666 
L 5778 4666 
L 5778 0 
L 4641 0 
L 4641 3413 
L 3566 897 
L 2803 897 
L 1728 3413 
L 1728 0 
L 588 0 
L 588 4666 
z
" transform="scale(0.015625)"/>
      <path id="DejaVuSans-Bold-61" d="M 2106 1575 
Q 1756 1575 1579 1456 
Q 1403 1338 1403 1106 
Q 1403 894 1545 773 
Q 1688 653 1941 653 
Q 2256 653 2472 879 
Q 2688 1106 2688 1447 
L 2688 1575 
L 2106 1575 
z
M 3816 1997 
L 3816 0 
L 2688 0 
L 2688 519 
Q 2463 200 2181 54 
Q 1900 -91 1497 -91 
Q 953 -91 614 226 
Q 275 544 275 1050 
Q 275 1666 698 1953 
Q 1122 2241 2028 2241 
L 2688 2241 
L 2688 2328 
Q 2688 2594 2478 2717 
Q 2269 2841 1825 2841 
Q 1466 2841 1156 2769 
Q 847 2697 581 2553 
L 581 3406 
Q 941 3494 1303 3539 
Q 1666 3584 2028 3584 
Q 2975 3584 3395 3211 
Q 3816 2838 3816 1997 
z
" transform="scale(0.015625)"/>
      <path id="DejaVuSans-Bold-6e" d="M 4056 2131 
L 4056 0 
L 2931 0 
L 2931 347 
L 2931 1631 
Q 2931 2084 2911 2256 
Q 2891 2428 2841 2509 
Q 2775 2619 2662 2680 
Q 2550 2741 2406 2741 
Q 2056 2741 1856 2470 
Q 1656 2200 1656 1722 
L 1656 0 
L 538 0 
L 538 3500 
L 1656 3500 
L 1656 2988 
Q 1909 3294 2193 3439 
Q 2478 3584 2822 3584 
Q 3428 3584 3742 3212 
Q 4056 2841 4056 2131 
z
" transform="scale(0.015625)"/>
      <path id="DejaVuSans-Bold-67" d="M 2919 594 
Q 2688 288 2409 144 
Q 2131 0 1766 0 
Q 1125 0 706 504 
Q 288 1009 288 1791 
Q 288 2575 706 3076 
Q 1125 3578 1766 3578 
Q 2131 3578 2409 3434 
Q 2688 3291 2919 2981 
L 2919 3500 
L 4044 3500 
L 4044 353 
Q 4044 -491 3511 -936 
Q 2978 -1381 1966 -1381 
Q 1638 -1381 1331 -1331 
Q 1025 -1281 716 -1178 
L 716 -306 
Q 1009 -475 1290 -558 
Q 1572 -641 1856 -641 
Q 2406 -641 2662 -400 
Q 2919 -159 2919 353 
L 2919 594 
z
M 2181 2772 
Q 1834 2772 1640 2515 
Q 1447 2259 1447 1791 
Q 1447 1309 1634 1061 
Q 1822 813 2181 813 
Q 2531 813 2725 1069 
Q 2919 1325 2919 1791 
Q 2919 2259 2725 2515 
Q 2531 2772 2181 2772 
z
" transform="scale(0.015625)"/>
      <path id="DejaVuSans-Bold-72" d="M 3138 2547 
Q 2991 2616 2845 2648 
Q 2700 2681 2553 2681 
Q 2122 2681 1889 2404 
Q 1656 2128 1656 1613 
L 1656 0 
L 538 0 
L 538 3500 
L 1656 3500 
L 1656 2925 
Q 1872 3269 2151 3426 
Q 2431 3584 2822 3584 
Q 2878 3584 2943 3579 
Q 3009 3575 3134 3559 
L 3138 2547 
z
" transform="scale(0.015625)"/>
     </defs>
     <use xlink:href="#DejaVuSans-Bold-4e"/>
     <use xlink:href="#DejaVuSans-Bold-6f" x="83.691406"/>
     <use xlink:href="#DejaVuSans-Bold-74" x="152.392578"/>
     <use xlink:href="#DejaVuSans-Bold-65" x="200.195312"/>
     <use xlink:href="#DejaVuSans-Bold-73" x="268.017578"/>
     <use xlink:href="#DejaVuSans-Bold-4d" x="327.539062"/>
     <use xlink:href="#DejaVuSans-Bold-61" x="427.050781"/>
     <use xlink:href="#DejaVuSans-Bold-6e" x="494.53125"/>
     <use xlink:href="#DejaVuSans-Bold-61" x="565.722656"/>
     <use xlink:href="#DejaVuSans-Bold-67" x="633.203125"/>
     <use xlink:href="#DejaVuSans-Bold-65" x="704.785156"/>
     <use xlink:href="#DejaVuSans-Bold-72" x="772.607422"/>
    </g>
   </g>
  </g>
  <g id="axes_2">
   <g id="patch_5">
    <path d="M 670.81 189.923125 
C 670.81 169.751901 666.836709 149.776817 659.117516 131.141036 
C 651.398322 112.505256 640.083346 95.571197 625.820137 81.307988 
C 611.556928 67.044779 594.622869 55.729803 575.987089 48.010609 
C 557.351308 40.291416 537.376224 36.318125 517.205 36.318125 
C 497.033776 36.318125 477.058692 40.291416 458.422911 48.010609 
C 439.787131 55.729803 422.853072 67.044779 408.589863 81.307988 
C 394.326654 95.571197 383.011678 112.505256 375.292484 131.141036 
C 367.573291 149.776817 363.6 169.751901 363.6 189.923125 
C 363.6 210.094349 367.573291 230.069433 375.292484 248.705214 
C 383.011678 267.340994 394.326654 284.275053 408.589863 298.538262 
C 422.853072 312.801471 439.787131 324.116447 458.422911 331.835641 
C 477.058692 339.554834 497.033776 343.528125 517.205 343.528125 
C 537.376224 343.528125 557.351308 339.554834 575.987089 331.835641 
C 594.622869 324.116447 611.556928 312.801471 625.820137 298.538262 
C 640.083346 284.275053 651.398322 267.340994 659.117516 248.705214 
C 666.836709 230.069433 670.81 210.094349 670.81 189.923125 
M 517.205 189.923125 
C 517.205 189.923125 517.205 189.923125 517.205 189.923125 
C 517.205 189.923125 517.205 189.923125 517.205 189.923125 
C 517.205 189.923125 517.205 189.923125 517.205 189.923125 
C 517.205 189.923125 517.205 189.923125 517.205 189.923125 
C 517.205 189.923125 517.205 189.923125 517.205 189.923125 
C 517.205 189.923125 517.205 189.923125 517.205 189.923125 
C 517.205 189.923125 517.205 189.923125 517.205 189.923125 
C 517.205 189.923125 517.205 189.923125 517.205 189.923125 
C 517.205 189.923125 517.205 189.923125 517.205 189.923125 
C 517.205 189.923125 517.205 189.923125 517.205 189.923125 
C 517.205 189.923125 517.205 189.923125 517.205 189.923125 
C 517.205 189.923125 517.205 189.923125 517.205 189.923125 
C 517.205 189.923125 517.205 189.923125 517.205 189.923125 
C 517.205 189.923125 517.205 189.923125 517.205 189.923125 
C 517.205 189.923125 517.205 189.923125 517.205 189.923125 
C 517.205 189.923125 517.205 189.923125 517.205 189.923125 
z
" style="fill: #ffffff"/>
   </g>
   <g id="matplotlib.axis_3">
    <g id="xtick_4">
     <g id="line2d_9">
      <path d="M 517.205 189.923125 
L 670.81 189.923125 
" clip-path="url(#p77f8e6f7ee)" style="fill: none; stroke: #cccccc; stroke-width: 0.8; stroke-linecap: round"/>
     </g>
     <g id="text_9">
      <!-- Méthodes -->
      <g style="fill: #262626" transform="translate(660.375625 192.6825) scale(0.1 -0.1)">
       <use xlink:href="#DejaVuSans-4d"/>
       <use xlink:href="#DejaVuSans-e9" x="86.279297"/>
       <use xlink:href="#DejaVuSans-74" x="147.802734"/>
       <use xlink:href="#DejaVuSans-68" x="187.011719"/>
       <use xlink:href="#DejaVuSans-6f" x="250.390625"/>
       <use xlink:href="#DejaVuSans-64" x="311.572266"/>
       <use xlink:href="#DejaVuSans-65" x="375.048828"/>
       <use xlink:href="#DejaVuSans-73" x="436.572266"/>
      </g>
     </g>
    </g>
    <g id="xtick_5">
     <g id="line2d_10">
      <path d="M 517.205 189.923125 
L 440.4025 56.897293 
" clip-path="url(#p77f8e6f7ee)" style="fill: none; stroke: #cccccc; stroke-width: 0.8; stroke-linecap: round"/>
     </g>
     <g id="text_10">
      <!-- Attributs -->
      <g style="fill: #262626" transform="translate(411.797031 47.532312) scale(0.1 -0.1)">
       <use xlink:href="#DejaVuSans-41"/>
       <use xlink:href="#DejaVuSans-74" x="66.658203"/>
       <use xlink:href="#DejaVuSans-74" x="105.867188"/>
       <use xlink:href="#DejaVuSans-72" x="145.076172"/>
       <use xlink:href="#DejaVuSans-69" x="186.189453"/>
       <use xlink:href="#DejaVuSans-62" x="213.972656"/>
       <use xlink:href="#DejaVuSans-75" x="277.449219"/>
       <use xlink:href="#DejaVuSans-74" x="340.828125"/>
       <use xlink:href="#DejaVuSans-73" x="380.037109"/>
      </g>
     </g>
    </g>
    <g id="xtick_6">
     <g id="line2d_11">
      <path d="M 517.205 189.923125 
L 440.4025 322.948957 
" clip-path="url(#p77f8e6f7ee)" style="fill: none; stroke: #cccccc; stroke-width: 0.8; stroke-linecap: round"/>
     </g>
     <g id="text_11">
      <!-- Lignes de code -->
      <g style="fill: #262626" transform="translate(395.715 337.832688) scale(0.1 -0.1)">
       <use xlink:href="#DejaVuSans-4c"/>
       <use xlink:href="#DejaVuSans-69" x="55.712891"/>
       <use xlink:href="#DejaVuSans-67" x="83.496094"/>
       <use xlink:href="#DejaVuSans-6e" x="146.972656"/>
       <use xlink:href="#DejaVuSans-65" x="210.351562"/>
       <use xlink:href="#DejaVuSans-73" x="271.875"/>
       <use xlink:href="#DejaVuSans-20" x="323.974609"/>
       <use xlink:href="#DejaVuSans-64" x="355.761719"/>
       <use xlink:href="#DejaVuSans-65" x="419.238281"/>
       <use xlink:href="#DejaVuSans-20" x="480.761719"/>
       <use xlink:href="#DejaVuSans-63" x="512.548828"/>
       <use xlink:href="#DejaVuSans-6f" x="567.529297"/>
       <use xlink:href="#DejaVuSans-64" x="628.710938"/>
       <use xlink:href="#DejaVuSans-65" x="692.1875"/>
      </g>
     </g>
    </g>
   </g>
   <g id="matplotlib.axis_4">
    <g id="ytick_5">
     <g id="line2d_12">
      <path d="M 548.236313 189.923125 
C 548.236313 185.84813 547.433628 181.81276 545.874195 178.047956 
C 544.314762 174.283151 542.028908 170.862129 539.147452 167.980673 
C 536.265996 165.099217 532.844974 162.813363 529.080169 161.25393 
C 525.315365 159.694497 521.279995 158.891812 517.205 158.891812 
C 513.130005 158.891812 509.094635 159.694497 505.329831 161.25393 
C 501.565026 162.813363 498.144004 165.099217 495.262548 167.980673 
C 492.381092 170.862129 490.095238 174.283151 488.535805 178.047956 
C 486.976372 181.81276 486.173687 185.84813 486.173687 189.923125 
C 486.173687 193.99812 486.976372 198.03349 488.535805 201.798294 
C 490.095238 205.563099 492.381092 208.984121 495.262548 211.865577 
C 498.144004 214.747033 501.565026 217.032887 505.329831 218.59232 
C 509.094635 220.151753 513.130005 220.954438 517.205 220.954438 
C 521.279995 220.954438 525.315365 220.151753 529.080169 218.59232 
C 532.844974 217.032887 536.265996 214.747033 539.147452 211.865577 
C 542.028908 208.984121 544.314762 205.563099 545.874195 201.798294 
C 547.433628 198.03349 548.236313 193.99812 548.236313 189.923125 
" clip-path="url(#p77f8e6f7ee)" style="fill: none; stroke: #cccccc; stroke-width: 0.8; stroke-linecap: round"/>
     </g>
     <g id="text_12">
      <!-- 10 -->
      <g style="fill: #262626" transform="translate(545.874195 175.968268) scale(0.1 -0.1)">
       <use xlink:href="#DejaVuSans-31"/>
       <use xlink:href="#DejaVuSans-30" x="63.623047"/>
      </g>
     </g>
    </g>
    <g id="ytick_6">
     <g id="line2d_13">
      <path d="M 579.267626 189.923125 
C 579.267626 181.773136 577.662256 173.702395 574.54339 166.172786 
C 571.424524 158.643178 566.852817 151.801134 561.089904 146.038221 
C 555.326991 140.275308 548.484947 135.703601 540.955339 132.584735 
C 533.42573 129.465869 525.354989 127.860499 517.205 127.860499 
C 509.055011 127.860499 500.98427 129.465869 493.454661 132.584735 
C 485.925053 135.703601 479.083009 140.275308 473.320096 146.038221 
C 467.557183 151.801134 462.985476 158.643178 459.86661 166.172786 
C 456.747744 173.702395 455.142374 181.773136 455.142374 189.923125 
C 455.142374 198.073114 456.747744 206.143855 459.86661 213.673464 
C 462.985476 221.203072 467.557183 228.045116 473.320096 233.808029 
C 479.083009 239.570942 485.925053 244.142649 493.454661 247.261515 
C 500.98427 250.380381 509.055011 251.985751 517.205 251.985751 
C 525.354989 251.985751 533.42573 250.380381 540.955339 247.261515 
C 548.484947 244.142649 555.326991 239.570942 561.089904 233.808029 
C 566.852817 228.045116 571.424524 221.203072 574.54339 213.673464 
C 577.662256 206.143855 579.267626 198.073114 579.267626 189.923125 
" clip-path="url(#p77f8e6f7ee)" style="fill: none; stroke: #cccccc; stroke-width: 0.8; stroke-linecap: round"/>
     </g>
     <g id="text_13">
      <!-- 20 -->
      <g style="fill: #262626" transform="translate(574.54339 164.093099) scale(0.1 -0.1)">
       <use xlink:href="#DejaVuSans-32"/>
       <use xlink:href="#DejaVuSans-30" x="63.623047"/>
      </g>
     </g>
    </g>
    <g id="ytick_7">
     <g id="line2d_14">
      <path d="M 610.298939 189.923125 
C 610.298939 177.698141 607.890884 165.592029 603.212585 154.297617 
C 598.534286 143.003204 591.676725 132.740138 583.032356 124.095769 
C 574.387987 115.4514 564.124921 108.593839 552.830508 103.91554 
C 541.536096 99.237241 529.429984 96.829186 517.205 96.829186 
C 504.980016 96.829186 492.873904 99.237241 481.579492 103.91554 
C 470.285079 108.593839 460.022013 115.4514 451.377644 124.095769 
C 442.733275 132.740138 435.875714 143.003204 431.197415 154.297617 
C 426.519116 165.592029 424.111061 177.698141 424.111061 189.923125 
C 424.111061 202.148109 426.519116 214.254221 431.197415 225.548633 
C 435.875714 236.843046 442.733275 247.106112 451.377644 255.750481 
C 460.022013 264.39485 470.285079 271.252411 481.579492 275.93071 
C 492.873904 280.609009 504.980016 283.017064 517.205 283.017064 
C 529.429984 283.017064 541.536096 280.609009 552.830508 275.93071 
C 564.124921 271.252411 574.387987 264.39485 583.032356 255.750481 
C 591.676725 247.106112 598.534286 236.843046 603.212585 225.548633 
C 607.890884 214.254221 610.298939 202.148109 610.298939 189.923125 
" clip-path="url(#p77f8e6f7ee)" style="fill: none; stroke: #cccccc; stroke-width: 0.8; stroke-linecap: round"/>
     </g>
     <g id="text_14">
      <!-- 30 -->
      <g style="fill: #262626" transform="translate(603.212585 152.217929) scale(0.1 -0.1)">
       <use xlink:href="#DejaVuSans-33"/>
       <use xlink:href="#DejaVuSans-30" x="63.623047"/>
      </g>
     </g>
    </g>
    <g id="ytick_8">
     <g id="line2d_15">
      <path d="M 641.330253 189.923125 
C 641.330253 173.623146 638.119512 157.481664 631.88178 142.422447 
C 625.644048 127.363231 616.500633 113.679143 604.974808 102.153317 
C 593.448982 90.627492 579.764894 81.484077 564.705678 75.246345 
C 549.646461 69.008613 533.504979 65.797872 517.205 65.797872 
C 500.905021 65.797872 484.763539 69.008613 469.704322 75.246345 
C 454.645106 81.484077 440.961018 90.627492 429.435192 102.153317 
C 417.909367 113.679143 408.765952 127.363231 402.52822 142.422447 
C 396.290488 157.481664 393.079747 173.623146 393.079747 189.923125 
C 393.079747 206.223104 396.290488 222.364586 402.52822 237.423803 
C 408.765952 252.483019 417.909367 266.167107 429.435192 277.692933 
C 440.961018 289.218758 454.645106 298.362173 469.704322 304.599905 
C 484.763539 310.837637 500.905021 314.048378 517.205 314.048378 
C 533.504979 314.048378 549.646461 310.837637 564.705678 304.599905 
C 579.764894 298.362173 593.448982 289.218758 604.974808 277.692933 
C 616.500633 266.167107 625.644048 252.483019 631.88178 237.423803 
C 638.119512 222.364586 641.330253 206.223104 641.330253 189.923125 
" clip-path="url(#p77f8e6f7ee)" style="fill: none; stroke: #cccccc; stroke-width: 0.8; stroke-linecap: round"/>
     </g>
     <g id="text_15">
      <!-- 40 -->
      <g style="fill: #262626" transform="translate(631.88178 140.34276) scale(0.1 -0.1)">
       <use xlink:href="#DejaVuSans-34"/>
       <use xlink:href="#DejaVuSans-30" x="63.623047"/>
      </g>
     </g>
    </g>
   </g>
   <g id="patch_6">
    <path d="M 532.720657 189.923125 
L 514.101869 184.548344 
L 479.967424 254.420498 
z
" clip-path="url(#p77f8e6f7ee)" style="fill: #10b981; opacity: 0.25; stroke: #10b981; stroke-linejoin: miter"/>
   </g>
   <g id="line2d_16">
    <path d="M 532.720657 189.923125 
L 514.101869 184.548344 
L 479.967424 254.420498 
L 532.720657 189.923125 
" clip-path="url(#p77f8e6f7ee)" style="fill: none; stroke: #10b981; stroke-width: 2; stroke-linecap: round"/>
    <defs>
     <path id="mcef031a005" d="M 0 3 
C 0.795609 3 1.55874 2.683901 2.12132 2.12132 
C 2.683901 1.55874 3 0.795609 3 0 
C 3 -0.795609 2.683901 -1.55874 2.12132 -2.12132 
C 1.55874 -2.683901 0.795609 -3 0 -3 
C -0.795609 -3 -1.55874 -2.683901 -2.12132 -2.12132 
C -2.683901 -1.55874 -3 -0.795609 -3 0 
C -3 0.795609 -2.683901 1.55874 -2.12132 2.12132 
C -1.55874 2.683901 -0.795609 3 0 3 
z
" style="stroke: #10b981"/>
    </defs>
    <g clip-path="url(#p77f8e6f7ee)">
     <use xlink:href="#mcef031a005" x="532.720657" y="189.923125" style="fill: #10b981; stroke: #10b981"/>
     <use xlink:href="#mcef031a005" x="514.101869" y="184.548344" style="fill: #10b981; stroke: #10b981"/>
     <use xlink:href="#mcef031a005" x="479.967424" y="254.420498" style="fill: #10b981; stroke: #10b981"/>
     <use xlink:href="#mcef031a005" x="532.720657" y="189.923125" style="fill: #10b981; stroke: #10b981"/>
    </g>
   </g>
   <g id="patch_7">
    <path d="M 670.81 189.923125 
C 670.81 169.751901 666.836709 149.776817 659.117516 131.141036 
C 651.398322 112.505256 640.083346 95.571197 625.820137 81.307988 
C 611.556928 67.044779 594.622869 55.729803 575.987089 48.010609 
C 557.351308 40.291416 537.376224 36.318125 517.205 36.318125 
C 497.033776 36.318125 477.058692 40.291416 458.422911 48.010609 
C 439.787131 55.729803 422.853072 67.044779 408.589863 81.307988 
C 394.326654 95.571197 383.011678 112.505256 375.292484 131.141036 
C 367.573291 149.776817 363.6 169.751901 363.6 189.923125 
C 363.6 210.094349 367.573291 230.069433 375.292484 248.705214 
C 383.011678 267.340994 394.326654 284.275053 408.589863 298.538262 
C 422.853072 312.801471 439.787131 324.116447 458.422911 331.835641 
C 477.058692 339.554834 497.033776 343.528125 517.205 343.528125 
C 537.376224 343.528125 557.351308 339.554834 575.987089 331.835641 
C 594.622869 324.116447 611.556928 312.801471 625.820137 298.538262 
C 640.083346 284.275053 651.398322 267.340994 659.117516 248.705214 
C 666.836709 230.069433 670.81 210.094349 670.81 189.923125 
" style="fill: none; stroke: #cccccc; stroke-width: 0.8; stroke-linejoin: miter; stroke-linecap: square"/>
   </g>
   <g id="text_16">
    <!-- Person -->
    <g style="fill: #262626" transform="translate(493.814375 16.318125) scale(0.12 -0.12)">
     <defs>
      <path id="DejaVuSans-Bold-50" d="M 588 4666 
L 2584 4666 
Q 3475 4666 3951 4270 
Q 4428 3875 4428 3144 
Q 4428 2409 3951 2014 
Q 3475 1619 2584 1619 
L 1791 1619 
L 1791 0 
L 588 0 
L 588 4666 
z
M 1791 3794 
L 1791 2491 
L 2456 2491 
Q 2806 2491 2997 2661 
Q 3188 2831 3188 3144 
Q 3188 3456 2997 3625 
Q 2806 3794 2456 3794 
L 1791 3794 
z
" transform="scale(0.015625)"/>
     </defs>
     <use xlink:href="#DejaVuSans-Bold-50"/>
     <use xlink:href="#DejaVuSans-Bold-65" x="73.291016"/>
     <use xlink:href="#DejaVuSans-Bold-72" x="141.113281"/>
     <use xlink:href="#DejaVuSans-Bold-73" x="190.429688"/>
     <use xlink:href="#DejaVuSans-Bold-6f" x="249.951172"/>
     <use xlink:href="#DejaVuSans-Bold-6e" x="318.652344"/>
    </g>
   </g>
  </g>
  <g id="axes_3">
   <g id="patch_8">
    <path d="M 1027.21 189.923125 
C 1027.21 169.751901 1023.236709 149.776817 1015.517516 131.141036 
C 1007.798322 112.505256 996.483346 95.571197 982.220137 81.307988 
C 967.956928 67.044779 951.022869 55.729803 932.387089 48.010609 
C 913.751308 40.291416 893.776224 36.318125 873.605 36.318125 
C 853.433776 36.318125 833.458692 40.291416 814.822911 48.010609 
C 796.187131 55.729803 779.253072 67.044779 764.989863 81.307988 
C 750.726654 95.571197 739.411678 112.505256 731.692484 131.141036 
C 723.973291 149.776817 720 169.751901 720 189.923125 
C 720 210.094349 723.973291 230.069433 731.692484 248.705214 
C 739.411678 267.340994 750.726654 284.275053 764.989863 298.538262 
C 779.253072 312.801471 796.187131 324.116447 814.822911 331.835641 
C 833.458692 339.554834 853.433776 343.528125 873.605 343.528125 
C 893.776224 343.528125 913.751308 339.554834 932.387089 331.835641 
C 951.022869 324.116447 967.956928 312.801471 982.220137 298.538262 
C 996.483346 284.275053 1007.798322 267.340994 1015.517516 248.705214 
C 1023.236709 230.069433 1027.21 210.094349 1027.21 189.923125 
M 873.605 189.923125 
C 873.605 189.923125 873.605 189.923125 873.605 189.923125 
C 873.605 189.923125 873.605 189.923125 873.605 189.923125 
C 873.605 189.923125 873.605 189.923125 873.605 189.923125 
C 873.605 189.923125 873.605 189.923125 873.605 189.923125 
C 873.605 189.923125 873.605 189.923125 873.605 189.923125 
C 873.605 189.923125 873.605 189.923125 873.605 189.923125 
C 873.605 189.923125 873.605 189.923125 873.605 189.923125 
C 873.605 189.923125 873.605 189.923125 873.605 189.923125 
C 873.605 189.923125 873.605 189.923125 873.605 189.923125 
C 873.605 189.923125 873.605 189.923125 873.605 189.923125 
C 873.605 189.923125 873.605 189.923125 873.605 189.923125 
C 873.605 189.923125 873.605 189.923125 873.605 189.923125 
C 873.605 189.923125 873.605 189.923125 873.605 189.923125 
C 873.605 189.923125 873.605 189.923125 873.605 189.923125 
C 873.605 189.923125 873.605 189.923125 873.605 189.923125 
C 873.605 189.923125 873.605 189.923125 873.605 189.923125 
z
" style="fill: #ffffff"/>
   </g>
   <g id="matplotlib.axis_5">
    <g id="xtick_7">
     <g id="line2d_17">
      <path d="M 873.605 189.923125 
L 1027.21 189.923125 
" clip-path="url(#pd4077afd69)" style="fill: none; stroke: #cccccc; stroke-width: 0.8; stroke-linecap: round"/>
     </g>
     <g id="text_17">
      <!-- Méthodes -->
      <g style="fill: #262626" transform="translate(1016.775625 192.6825) scale(0.1 -0.1)">
       <use xlink:href="#DejaVuSans-4d"/>
       <use xlink:href="#DejaVuSans-e9" x="86.279297"/>
       <use xlink:href="#DejaVuSans-74" x="147.802734"/>
       <use xlink:href="#DejaVuSans-68" x="187.011719"/>
       <use xlink:href="#DejaVuSans-6f" x="250.390625"/>
       <use xlink:href="#DejaVuSans-64" x="311.572266"/>
       <use xlink:href="#DejaVuSans-65" x="375.048828"/>
       <use xlink:href="#DejaVuSans-73" x="436.572266"/>
      </g>
     </g>
    </g>
    <g id="xtick_8">
     <g id="line2d_18">
      <path d="M 873.605 189.923125 
L 796.8025 56.897293 
" clip-path="url(#pd4077afd69)" style="fill: none; stroke: #cccccc; stroke-width: 0.8; stroke-linecap: round"/>
     </g>
     <g id="text_18">
      <!-- Attributs -->
      <g style="fill: #262626" transform="translate(768.197031 47.532312) scale(0.1 -0.1)">
       <use xlink:href="#DejaVuSans-41"/>
       <use xlink:href="#DejaVuSans-74" x="66.658203"/>
       <use xlink:href="#DejaVuSans-74" x="105.867188"/>
       <use xlink:href="#DejaVuSans-72" x="145.076172"/>
       <use xlink:href="#DejaVuSans-69" x="186.189453"/>
       <use xlink:href="#DejaVuSans-62" x="213.972656"/>
       <use xlink:href="#DejaVuSans-75" x="277.449219"/>
       <use xlink:href="#DejaVuSans-74" x="340.828125"/>
       <use xlink:href="#DejaVuSans-73" x="380.037109"/>
      </g>
     </g>
    </g>
    <g id="xtick_9">
     <g id="line2d_19">
      <path d="M 873.605 189.923125 
L 796.8025 322.948957 
" clip-path="url(#pd4077afd69)" style="fill: none; stroke: #cccccc; stroke-width: 0.8; stroke-linecap: round"/>
     </g>
     <g id="text_19">
      <!-- Lignes de code -->
      <g style="fill: #262626" transform="translate(752.115 337.832688) scale(0.1 -0.1)">
       <use xlink:href="#DejaVuSans-4c"/>
       <use xlink:href="#DejaVuSans-69" x="55.712891"/>
       <use xlink:href="#DejaVuSans-67" x="83.496094"/>
       <use xlink:href="#DejaVuSans-6e" x="146.972656"/>
       <use xlink:href="#DejaVuSans-65" x="210.351562"/>
       <use xlink:href="#DejaVuSans-73" x="271.875"/>
       <use xlink:href="#DejaVuSans-20" x="323.974609"/>
       <use xlink:href="#DejaVuSans-64" x="355.761719"/>
       <use xlink:href="#DejaVuSans-65" x="419.238281"/>
       <use xlink:href="#DejaVuSans-20" x="480.761719"/>
       <use xlink:href="#DejaVuSans-63" x="512.548828"/>
       <use xlink:href="#DejaVuSans-6f" x="567.529297"/>
       <use xlink:href="#DejaVuSans-64" x="628.710938"/>
       <use xlink:href="#DejaVuSans-65" x="692.1875"/>
      </g>
     </g>
    </g>
   </g>
   <g id="matplotlib.axis_6">
    <g id="ytick_9">
     <g id="line2d_20">
      <path d="M 904.636313 189.923125 
C 904.636313 185.84813 903.833628 181.81276 902.274195 178.047956 
C 900.714762 174.283151 898.428908 170.862129 895.547452 167.980673 
C 892.665996 165.099217 889.244974 162.813363 885.480169 161.25393 
C 881.715365 159.694497 877.679995 158.891812 873.605 158.891812 
C 869.530005 158.891812 865.494635 159.694497 861.729831 161.25393 
C 857.965026 162.813363 854.544004 165.099217 851.662548 167.980673 
C 848.781092 170.862129 846.495238 174.283151 844.935805 178.047956 
C 843.376372 181.81276 842.573687 185.84813 842.573687 189.923125 
C 842.573687 193.99812 843.376372 198.03349 844.935805 201.798294 
C 846.495238 205.563099 848.781092 208.984121 851.662548 211.865577 
C 854.544004 214.747033 857.965026 217.032887 861.729831 218.59232 
C 865.494635 220.151753 869.530005 220.954438 873.605 220.954438 
C 877.679995 220.954438 881.715365 220.151753 885.480169 218.59232 
C 889.244974 217.032887 892.665996 214.747033 895.547452 211.865577 
C 898.428908 208.984121 900.714762 205.563099 902.274195 201.798294 
C 903.833628 198.03349 904.636313 193.99812 904.636313 189.923125 
" clip-path="url(#pd4077afd69)" style="fill: none; stroke: #cccccc; stroke-width: 0.8; stroke-linecap: round"/>
     </g>
     <g id="text_20">
      <!-- 10 -->
      <g style="fill: #262626" transform="translate(902.274195 175.968268) scale(0.1 -0.1)">
       <use xlink:href="#DejaVuSans-31"/>
       <use xlink:href="#DejaVuSans-30" x="63.623047"/>
      </g>
     </g>
    </g>
    <g id="ytick_10">
     <g id="line2d_21">
      <path d="M 935.667626 189.923125 
C 935.667626 181.773136 934.062256 173.702395 930.94339 166.172786 
C 927.824524 158.643178 923.252817 151.801134 917.489904 146.038221 
C 911.726991 140.275308 904.884947 135.703601 897.355339 132.584735 
C 889.82573 129.465869 881.754989 127.860499 873.605 127.860499 
C 865.455011 127.860499 857.38427 129.465869 849.854661 132.584735 
C 842.325053 135.703601 835.483009 140.275308 829.720096 146.038221 
C 823.957183 151.801134 819.385476 158.643178 816.26661 166.172786 
C 813.147744 173.702395 811.542374 181.773136 811.542374 189.923125 
C 811.542374 198.073114 813.147744 206.143855 816.26661 213.673464 
C 819.385476 221.203072 823.957183 228.045116 829.720096 233.808029 
C 835.483009 239.570942 842.325053 244.142649 849.854661 247.261515 
C 857.38427 250.380381 865.455011 251.985751 873.605 251.985751 
C 881.754989 251.985751 889.82573 250.380381 897.355339 247.261515 
C 904.884947 244.142649 911.726991 239.570942 917.489904 233.808029 
C 923.252817 228.045116 927.824524 221.203072 930.94339 213.673464 
C 934.062256 206.143855 935.667626 198.073114 935.667626 189.923125 
" clip-path="url(#pd4077afd69)" style="fill: none; stroke: #cccccc; stroke-width: 0.8; stroke-linecap: round"/>
     </g>
     <g id="text_21">
      <!-- 20 -->
      <g style="fill: #262626" transform="translate(930.94339 164.093099) scale(0.1 -0.1)">
       <use xlink:href="#DejaVuSans-32"/>
       <use xlink:href="#DejaVuSans-30" x="63.623047"/>
      </g>
     </g>
    </g>
    <g id="ytick_11">
     <g id="line2d_22">
      <path d="M 966.698939 189.923125 
C 966.698939 177.698141 964.290884 165.592029 959.612585 154.297617 
C 954.934286 143.003204 948.076725 132.740138 939.432356 124.095769 
C 930.787987 115.4514 920.524921 108.593839 909.230508 103.91554 
C 897.936096 99.237241 885.829984 96.829186 873.605 96.829186 
C 861.380016 96.829186 849.273904 99.237241 837.979492 103.91554 
C 826.685079 108.593839 816.422013 115.4514 807.777644 124.095769 
C 799.133275 132.740138 792.275714 143.003204 787.597415 154.297617 
C 782.919116 165.592029 780.511061 177.698141 780.511061 189.923125 
C 780.511061 202.148109 782.919116 214.254221 787.597415 225.548633 
C 792.275714 236.843046 799.133275 247.106112 807.777644 255.750481 
C 816.422013 264.39485 826.685079 271.252411 837.979492 275.93071 
C 849.273904 280.609009 861.380016 283.017064 873.605 283.017064 
C 885.829984 283.017064 897.936096 280.609009 909.230508 275.93071 
C 920.524921 271.252411 930.787987 264.39485 939.432356 255.750481 
C 948.076725 247.106112 954.934286 236.843046 959.612585 225.548633 
C 964.290884 214.254221 966.698939 202.148109 966.698939 189.923125 
" clip-path="url(#pd4077afd69)" style="fill: none; stroke: #cccccc; stroke-width: 0.8; stroke-linecap: round"/>
     </g>
     <g id="text_22">
      <!-- 30 -->
      <g style="fill: #262626" transform="translate(959.612585 152.217929) scale(0.1 -0.1)">
       <use xlink:href="#DejaVuSans-33"/>
       <use xlink:href="#DejaVuSans-30" x="63.623047"/>
      </g>
     </g>
    </g>
    <g id="ytick_12">
     <g id="line2d_23">
      <path d="M 997.730253 189.923125 
C 997.730253 173.623146 994.519512 157.481664 988.28178 142.422447 
C 982.044048 127.363231 972.900633 113.679143 961.374808 102.153317 
C 949.848982 90.627492 936.164894 81.484077 921.105678 75.246345 
C 906.046461 69.008613 889.904979 65.797872 873.605 65.797872 
C 857.305021 65.797872 841.163539 69.008613 826.104322 75.246345 
C 811.045106 81.484077 797.361018 90.627492 785.835192 102.153317 
C 774.309367 113.679143 765.165952 127.363231 758.92822 142.422447 
C 752.690488 157.481664 749.479747 173.623146 749.479747 189.923125 
C 749.479747 206.223104 752.690488 222.364586 758.92822 237.423803 
C 765.165952 252.483019 774.309367 266.167107 785.835192 277.692933 
C 797.361018 289.218758 811.045106 298.362173 826.104322 304.599905 
C 841.163539 310.837637 857.305021 314.048378 873.605 314.048378 
C 889.904979 314.048378 906.046461 310.837637 921.105678 304.599905 
C 936.164894 298.362173 949.848982 289.218758 961.374808 277.692933 
C 972.900633 266.167107 982.044048 252.483019 988.28178 237.423803 
C 994.519512 222.364586 997.730253 206.223104 997.730253 189.923125 
" clip-path="url(#pd4077afd69)" style="fill: none; stroke: #cccccc; stroke-width: 0.8; stroke-linecap: round"/>
     </g>
     <g id="text_23">
      <!-- 40 -->
      <g style="fill: #262626" transform="translate(988.28178 140.34276) scale(0.1 -0.1)">
       <use xlink:href="#DejaVuSans-34"/>
       <use xlink:href="#DejaVuSans-30" x="63.623047"/>
      </g>
     </g>
    </g>
   </g>
   <g id="patch_9">
    <path d="M 879.811263 189.923125 
L 867.398737 179.173563 
L 850.331515 230.233983 
z
" clip-path="url(#pd4077afd69)" style="fill: #ef4444; opacity: 0.25; stroke: #ef4444; stroke-linejoin: miter"/>
   </g>
   <g id="line2d_24">
    <path d="M 879.811263 189.923125 
L 867.398737 179.173563 
L 850.331515 230.233983 
L 879.811263 189.923125 
" clip-path="url(#pd4077afd69)" style="fill: none; stroke: #ef4444; stroke-width: 2; stroke-linecap: round"/>
    <defs>
     <path id="m684d630182" d="M 0 3 
C 0.795609 3 1.55874 2.683901 2.12132 2.12132 
C 2.683901 1.55874 3 0.795609 3 0 
C 3 -0.795609 2.683901 -1.55874 2.12132 -2.12132 
C 1.55874 -2.683901 0.795609 -3 0 -3 
C -0.795609 -3 -1.55874 -2.683901 -2.12132 -2.12132 
C -2.683901 -1.55874 -3 -0.795609 -3 0 
C -3 0.795609 -2.683901 1.55874 -2.12132 2.12132 
C -1.55874 2.683901 -0.795609 3 0 3 
z
" style="stroke: #ef4444"/>
    </defs>
    <g clip-path="url(#pd4077afd69)">
     <use xlink:href="#m684d630182" x="879.811263" y="189.923125" style="fill: #ef4444; stroke: #ef4444"/>
     <use xlink:href="#m684d630182" x="867.398737" y="179.173563" style="fill: #ef4444; stroke: #ef4444"/>
     <use xlink:href="#m684d630182" x="850.331515" y="230.233983" style="fill: #ef4444; stroke: #ef4444"/>
     <use xlink:href="#m684d630182" x="879.811263" y="189.923125" style="fill: #ef4444; stroke: #ef4444"/>
    </g>
   </g>
   <g id="patch_10">
    <path d="M 1027.21 189.923125 
C 1027.21 169.751901 1023.236709 149.776817 1015.517516 131.141036 
C 1007.798322 112.505256 996.483346 95.571197 982.220137 81.307988 
C 967.956928 67.044779 951.022869 55.729803 932.387089 48.010609 
C 913.751308 40.291416 893.776224 36.318125 873.605 36.318125 
C 853.433776 36.318125 833.458692 40.291416 814.822911 48.010609 
C 796.187131 55.729803 779.253072 67.044779 764.989863 81.307988 
C 750.726654 95.571197 739.411678 112.505256 731.692484 131.141036 
C 723.973291 149.776817 720 169.751901 720 189.923125 
C 720 210.094349 723.973291 230.069433 731.692484 248.705214 
C 739.411678 267.340994 750.726654 284.275053 764.989863 298.538262 
C 779.253072 312.801471 796.187131 324.116447 814.822911 331.835641 
C 833.458692 339.554834 853.433776 343.528125 873.605 343.528125 
C 893.776224 343.528125 913.751308 339.554834 932.387089 331.835641 
C 951.022869 324.116447 967.956928 312.801471 982.220137 298.538262 
C 996.483346 284.275053 1007.798322 267.340994 1015.517516 248.705214 
C 1023.236709 230.069433 1027.21 210.094349 1027.21 189.923125 
" style="fill: none; stroke: #cccccc; stroke-width: 0.8; stroke-linejoin: miter; stroke-linecap: square"/>
   </g>
   <g id="text_24">
    <!-- Note -->
    <g style="fill: #262626" transform="translate(857.524063 16.318125) scale(0.12 -0.12)">
     <use xlink:href="#DejaVuSans-Bold-4e"/>
     <use xlink:href="#DejaVuSans-Bold-6f" x="83.691406"/>
     <use xlink:href="#DejaVuSans-Bold-74" x="152.392578"/>
     <use xlink:href="#DejaVuSans-Bold-65" x="200.195312"/>
    </g>
   </g>
  </g>
 </g>
 <defs>
  <clipPath id="p1835657cb5">
   <path d="M 314.41 189.923125 
C 314.41 169.751901 310.436709 149.776817 302.717516 131.141036 
C 294.998322 112.505256 283.683346 95.571197 269.420137 81.307988 
C 255.156928 67.044779 238.222869 55.729803 219.587089 48.010609 
C 200.951308 40.291416 180.976224 36.318125 160.805 36.318125 
C 140.633776 36.318125 120.658692 40.291416 102.022911 48.010609 
C 83.387131 55.729803 66.453072 67.044779 52.189863 81.307988 
C 37.926654 95.571197 26.611678 112.505256 18.892484 131.141036 
C 11.173291 149.776817 7.2 169.751901 7.2 189.923125 
C 7.2 210.094349 11.173291 230.069433 18.892484 248.705214 
C 26.611678 267.340994 37.926654 284.275053 52.189863 298.538262 
C 66.453072 312.801471 83.387131 324.116447 102.022911 331.835641 
C 120.658692 339.554834 140.633776 343.528125 160.805 343.528125 
C 180.976224 343.528125 200.951308 339.554834 219.587089 331.835641 
C 238.222869 324.116447 255.156928 312.801471 269.420137 298.538262 
C 283.683346 284.275053 294.998322 267.340994 302.717516 248.705214 
C 310.436709 230.069433 314.41 210.094349 314.41 189.923125 
M 160.805 189.923125 
C 160.805 189.923125 160.805 189.923125 160.805 189.923125 
C 160.805 189.923125 160.805 189.923125 160.805 189.923125 
C 160.805 189.923125 160.805 189.923125 160.805 189.923125 
C 160.805 189.923125 160.805 189.923125 160.805 189.923125 
C 160.805 189.923125 160.805 189.923125 160.805 189.923125 
C 160.805 189.923125 160.805 189.923125 160.805 189.923125 
C 160.805 189.923125 160.805 189.923125 160.805 189.923125 
C 160.805 189.923125 160.805 189.923125 160.805 189.923125 
C 160.805 189.923125 160.805 189.923125 160.805 189.923125 
C 160.805 189.923125 160.805 189.923125 160.805 189.923125 
C 160.805 189.923125 160.805 189.923125 160.805 189.923125 
C 160.805 189.923125 160.805 189.923125 160.805 189.923125 
C 160.805 189.923125 160.805 189.923125 160.805 189.923125 
C 160.805 189.923125 160.805 189.923125 160.805 189.923125 
C 160.805 189.923125 160.805 189.923125 160.805 189.923125 
C 160.805 189.923125 160.805 189.923125 160.805 189.923125 
z
"/>
  </clipPath>
  <clipPath id="p77f8e6f7ee">
   <path d="M 670.81 189.923125 
C 670.81 169.751901 666.836709 149.776817 659.117516 131.141036 
C 651.398322 112.505256 640.083346 95.571197 625.820137 81.307988 
C 611.556928 67.044779 594.622869 55.729803 575.987089 48.010609 
C 557.351308 40.291416 537.376224 36.318125 517.205 36.318125 
C 497.033776 36.318125 477.058692 40.291416 458.422911 48.010609 
C 439.787131 55.729803 422.853072 67.044779 408.589863 81.307988 
C 394.326654 95.571197 383.011678 112.505256 375.292484 131.141036 
C 367.573291 149.776817 363.6 169.751901 363.6 189.923125 
C 363.6 210.094349 367.573291 230.069433 375.292484 248.705214 
C 383.011678 267.340994 394.326654 284.275053 408.589863 298.538262 
C 422.853072 312.801471 439.787131 324.116447 458.422911 331.835641 
C 477.058692 339.554834 497.033776 343.528125 517.205 343.528125 
C 537.376224 343.528125 557.351308 339.554834 575.987089 331.835641 
C 594.622869 324.116447 611.556928 312.801471 625.820137 298.538262 
C 640.083346 284.275053 651.398322 267.340994 659.117516 248.705214 
C 666.836709 230.069433 670.81 210.094349 670.81 189.923125 
M 517.205 189.923125 
C 517.205 189.923125 517.205 189.923125 517.205 189.923125 
C 517.205 189.923125 517.205 189.923125 517.205 189.923125 
C 517.205 189.923125 517.205 189.923125 517.205 189.923125 
C 517.205 189.923125 517.205 189.923125 517.205 189.923125 
C 517.205 189.923125 517.205 189.923125 517.205 189.923125 
C 517.205 189.923125 517.205 189.923125 517.205 189.923125 
C 517.205 189.923125 517.205 189.923125 517.205 189.923125 
C 517.205 189.923125 517.205 189.923125 517.205 189.923125 
C 517.205 189.923125 517.205 189.923125 517.205 189.923125 
C 517.205 189.923125 517.205 189.923125 517.205 189.923125 
C 517.205 189.923125 517.205 189.923125 517.205 189.923125 
C 517.205 189.923125 517.205 189.923125 517.205 189.923125 
C 517.205 189.923125 517.205 189.923125 517.205 189.923125 
C 517.205 189.923125 517.205 189.923125 517.205 189.923125 
C 517.205 189.923125 517.205 189.923125 517.205 189.923125 
C 517.205 189.923125 517.205 189.923125 517.205 189.923125 
z
"/>
  </clipPath>
  <clipPath id="pd4077afd69">
   <path d="M 1027.21 189.923125 
C 1027.21 169.751901 1023.236709 149.776817 1015.517516 131.141036 
C 1007.798322 112.505256 996.483346 95.571197 982.220137 81.307988 
C 967.956928 67.044779 951.022869 55.729803 932.387089 48.010609 
C 913.751308 40.291416 893.776224 36.318125 873.605 36.318125 
C 853.433776 36.318125 833.458692 40.291416 814.822911 48.010609 
C 796.187131 55.729803 779.253072 67.044779 764.989863 81.307988 
C 750.726654 95.571197 739.411678 112.505256 731.692484 131.141036 
C 723.973291 149.776817 720 169.751901 720 189.923125 
C 720 210.094349 723.973291 230.069433 731.692484 248.705214 
C 739.411678 267.340994 750.726654 284.275053 764.989863 298.538262 
C 779.253072 312.801471 796.187131 324.116447 814.822911 331.835641 
C 833.458692 339.554834 853.433776 343.528125 873.605 343.528125 
C 893.776224 343.528125 913.751308 339.554834 932.387089 331.835641 
C 951.022869 324.116447 967.956928 312.801471 982.220137 298.538262 
C 996.483346 284.275053 1007.798322 267.340994 1015.517516 248.705214 
C 1023.236709 230.069433 1027.21 210.094349 1027.21 189.923125 
M 873.605 189.923125 
C 873.605 189.923125 873.605 189.923125 873.605 189.923125 
C 873.605 189.923125 873.605 189.923125 873.605 189.923125 
C 873.605 189.923125 873.605 189.923125 873.605 189.923125 
C 873.605 189.923125 873.605 189.923125 873.605 189.923125 
C 873.605 189.923125 873.605 189.923125 873.605 189.923125 
C 873.605 189.923125 873.605 189.923125 873.605 189.923125 
C 873.605 189.923125 873.605 189.923125 873.605 189.923125 
C 873.605 189.923125 873.605 189.923125 873.605 189.923125 
C 873.605 189.923125 873.605 189.923125 873.605 189.923125 
C 873.605 189.923125 873.605 189.923125 873.605 189.923125 
C 873.605 189.923125 873.605 189.923125 873.605 189.923125 
C 873.605 189.923125 873.605 189.923125 873.605 189.923125 
C 873.605 189.923125 873.605 189.923125 873.605 189.923125 
C 873.605 189.923125 873.605 189.923125 873.605 189.923125 
C 873.605 189.923125 873.605 189.923125 873.605 189.923125 
C 873.605 189.923125 873.605 189.923125 873.605 189.923125 
z
"/>
  </clipPath>
 </defs>
</svg>
